<svg xmlns="http://www.w3.org/2000/svg" version="1.1" xmlns:xlink="http://www.w3.org/1999/xlink" width="120" height="120"><svg width="120" height="120" viewBox="0 0 120 120" fill="none" xmlns="http://www.w3.org/2000/svg">
<path d="M27.8359 72.125L4.5 56.125L27.8359 62.625L25.8359 34.625L35.8359 15.625L52.3359 1.625L42.8359 18.125L58.8359 7.125L54.3359 19.125L71.3359 6.625L59.3359 26.125L74.8359 13.125L62.8359 34.625V56.125L68.3359 44.125L81.8359 34.625L76.3359 46.125L89.8359 41.125L77.3359 53.625L90.8359 52.625L81.3359 61.625L90.8359 59.625L76.3359 84.625L115.5 95.1074L94.5 101.188L98 118.375L68.3359 93.5L38.4844 84.625L27.8359 72.125Z" fill="#141414"></path>
</svg><style>@media (prefers-color-scheme: light) { :root { filter: none; } }
@media (prefers-color-scheme: dark) { :root { filter: invert(100%); } }
</style></svg>